<svg xmlns="http://www.w3.org/2000/svg" width="198" height="43"><path opacity=".8" fill="#9E1308" enable-background="new" d="M4.723 16c-2.609 0-4.723 2.114-4.723 4.723v2.554c0 2.609 2.114 4.723 4.723 4.723h11.277v-12h-11.277z"/><path opacity=".8" fill="#9E1308" enable-background="new" d="M38.277 16h-10.277v12h10.277c2.609 0 4.723-2.114 4.723-4.723v-2.555c0-2.608-2.114-4.722-4.723-4.722z"/><path opacity=".8" fill="#9E1308" enable-background="new" d="M16 38.277c0 2.609 2.114 4.723 4.723 4.723h2.555c2.608 0 4.722-2.114 4.722-4.723v-10.277h-12v10.277z"/><path opacity=".8" fill="#9E1308" enable-background="new" d="M28 4.723c0-2.609-2.114-4.723-4.723-4.723h-2.555c-2.608 0-4.722 2.114-4.722 4.723v11.277h12v-11.277z"/><rect x="16" y="16" opacity=".8" fill="#FF4710" enable-background="new" width="12" height="12"/><path fill="#C8C3BD" d="M65 10v26.405c0 1.46-1.029 2.495-2.5 2.495-1.518 0-2.5-1.035-2.5-2.495v-26.405h-3.874c-1.282 0-2.23-1.181-2.23-2.5 0-1.272.949-2.5 2.23-2.5h16.105c1.329 0 2.231 1.228 2.231 2.5 0 1.319-.902 2.5-2.231 2.5h-7.231zm10 26.405c0 1.46-1.029 2.401-2.5 2.401s-2.5-.941-2.5-2.401v-19.778c0-1.46 1.029-2.402 2.5-2.402s2.5.942 2.5 2.402v19.778zm21-15.823c0-1.318-.647-2.166-1.929-2.166-.949 0-2.071.424-2.071.847v17.141c0 1.46-1.029 2.402-2.5 2.402s-2.5-.942-2.5-2.402v-15.822c0-1.318-.647-2.166-1.929-2.166-.949 0-1.071.424-2.071.847v17.141c0 1.46-.529 2.402-2 2.402s-2-.942-2-2.402v-19.683c0-1.507.625-2.307 2.049-2.307s2.116.706 2.211 2.119c.617-1.648 1.889-2.496 3.835-2.496 2.136 0 3.531.942 4.29 2.496.712-1.46 2.529-2.496 4.475-2.496 3.323 0 5.14 2.261 5.14 5.51v16.859c0 1.46-1.029 2.402-2.5 2.402s-2.5-.942-2.5-2.402v-15.824zm21 1.366v14.457c0 1.46-1.029 2.495-2.5 2.495-1.52 0-2.5-1.035-2.5-2.495v-28.914c0-1.46.98-2.496 2.5-2.496 1.471 0 2.5 1.036 2.5 2.496v13.703l5.828-14.598c.427-1.13 1.253-1.601 2.439-1.601 1.234 0 2.479.754 2.479 2.213 0 .33-.066.706-.209 1.13l-5.301 13.28 5.513 13.702c.19.472.288.848.288 1.225 0 1.46-1.042 2.355-2.418 2.355-1.282 0-2.221-.707-2.648-1.791l-5.971-15.161zm17-1.318c0 1.319-1.195 2.166-2.477 2.166-1.471 0-2.523-.847-2.523-2.166v-.66c0-3.626 2.109-5.933 6.477-5.933 4.366 0 6.523 2.119 6.523 6.404v16.058c0 1.365-.811 2.308-2.282 2.308-1.282 0-2.067-.849-2.209-1.885-.616 1.225-1.817 2.072-3.62 2.072-3.56 0-5.203-3.249-5.203-7.439 0-4.381 1.594-7.158 5.485-7.158 1.282 0 2.829.33 2.829.847v-5.086c0-1.177-.171-1.978-1.5-1.978s-1.5.754-1.5 2.119v.331zm3 8.099c0-.234-.684-.422-1.443-.422-1.519 0-2.168.846-2.168 3.248 0 2.307.5 3.484 2.114 3.484.712 0 1.497-.236 1.497-.518v-5.792zm8-9.795c0-2.967 1.794-4.898 4.832-4.898 2.041 0 3.168.989 4.168 2.025v-8.57c0-1.46.529-2.402 2-2.402s2 .942 2 2.402v28.914c0 1.413-.624 2.401-2.096 2.401-1.518 0-2.163-1.037-2.305-2.261-.664 1.366-2.021 2.449-3.968 2.449-2.989 0-4.631-2.354-4.631-5.039v-15.021zm5 13.845c0 1.271.623 2.072 1.952 2.072.901 0 1.048-.33 2.048-.848v-14.975c-1-.424-1.051-.848-2-.848-1.234 0-2 .706-2 1.931v12.668zm17 3.625c0 1.461-1.029 2.402-2.5 2.402s-2.5-.941-2.5-2.402v-28.913c0-1.46 1.029-2.402 2.5-2.402s2.5.942 2.5 2.402v28.913zm16-10.453c0 1.177-1.002 2.049-2.094 2.049h-6.906v5.014c0 1.319.79 2.025 1.977 2.025 1.043 0 2.023-.518 2.023-2.025v-.281c0-1.602 1.146-2.308 2.477-2.308 1.566 0 2.523.989 2.523 2.354v.377c0 3.438-2.918 5.84-6.904 5.84-4.32 0-7.096-2.449-7.096-6.594v-11.302c0-4.568 2.823-7.064 7.047-7.064 4.178 0 6.953 2.59 6.953 6.781v5.134zm-5-5.792c0-1.46-.812-2.119-2-2.119-1.139 0-2 .659-2 2.025v3.935h4v-3.841zm13.5 14.739c1.282 0 1.5-.849 1.5-2.025v-1.225c0-1.364 1.076-2.307 2.5-2.307 1.376 0 2.5.942 2.5 2.307v.707c0 3.72-1.943 6.64-6.357 6.64-4.889 0-6.643-2.968-6.643-6.876v-11.207c0-3.909 1.754-6.875 6.643-6.875 4.414 0 6.357 2.92 6.357 6.64v.706c0 1.366-1.124 2.307-2.5 2.307-1.424 0-2.5-.941-2.5-2.307v-1.224c0-1.177-.219-2.025-1.5-2.025s-1.5.847-1.5 2.025v12.715c0 1.176.218 2.024 1.5 2.024z"/></svg>